<?xml version="1.0" encoding="utf-8"?>
<svg viewBox="0 0 512 512" style="transform: scale(0.5);" class="fl-svg"><svg xmlns="http://www.w3.org/2000/svg" width="512" height="512" viewBox="0 0 512 512" style="" data-bbox="66.952 130.396 374.609 215.463"><g transform="matrix(0.7055663466453552, 0, 0, 0.7055663466453552, 128.00160217285156, 76.1665267944336)"><svg version="1.1" id="Calque_1" xmlns="http://www.w3.org/2000/svg" x="0px" y="0px" viewBox="0 0 360 360" enable-background="new 0 0 360 360" width="360" height="360"><path class="st0" d="M89.89 77.1l105.66 17.67l78.34 13.1c3.68 0.61 6.91 3 9.15 6.34c1.9 2.85 3.16 6.52 3.29 10.32l1.96 55.06
	l1.95 54.96v0.02c0.14 3.89-0.92 7.59-2.73 10.42c-2.22 3.48-5.59 5.79-9.55 6.11l-77.48 6.24l-104.48 8.41h-0.13l-0.5 0.03h-0.15
	c-4.95 0.19-9.53-1.65-12.96-4.83c-3.35-3.11-5.61-7.51-6.01-12.52v-0.13l-0.04-0.57v-0.15l-2.92-76.36L70.38 94.7
	c-0.05-1.34 0.03-2.64 0.23-3.86v-0.02c0.66-3.96 2.55-7.35 5.27-9.81l0.01 0.02c2.77-2.5 6.35-4 10.34-4.16
	c1.19-0.04 2.41 0.04 3.62 0.23H89.89L89.89 77.1z" fill="#0580D9"></path><path class="st1" d="M89.4 95.74l2.84 75.01L95 243.63c0.23 5.77 2.22 7.2 7.47 6.88L280.22 242c0.95 0 1.48-1.25 1.42-3.16
	l-3.88-116.71c-0.1-2.91-0.77-4.15-3.26-4.53L95.19 90.18C90.15 89.42 89.21 90.78 89.4 95.74L89.4 95.74z" fill="#FFFFFF"></path><path class="st0" d="M260.4 254.76c0 0 2.99 5.97 2.56 8.46c-0.43 2.49-1.98 3.38-5.29 4.1c-2.36 0.5-37.96 9.16-58.25 14.1
	c-7.78 1.89-15.95 3.06-23.34 0.89c-13.41-3.93-36.83-11.24-41.92-12.43L260.4 254.76L260.4 254.76z" fill="#0580D9"></path><path class="st2" d="M255.34 125.33c8.41 1.15 18.69 6.08 19.08 15.8l2.78 69.13c0.35 8.54-6.43 15.61-14.97 15.61h-129.9
	c-8.54 0-15.89-7.07-16.23-15.61l-3.5-86.98c-0.25-6.27 4.61-16.83 12.13-15.8L255.34 125.33L255.34 125.33z" fill-rule="evenodd" clip-rule="evenodd" fill="#FC458C"></path><path class="st3" d="M240.86 138.26c8.41 1.15 18.68 6.08 19.08 15.8l2.78 69.14c0.34 8.54-6.43 15.61-14.98 15.61h-129.9
	c-8.54 0-15.89-7.07-16.23-15.61l-3.5-86.99c-0.25-6.27 4.62-16.83 12.13-15.8L240.86 138.26L240.86 138.26z" fill-rule="evenodd" clip-rule="evenodd" fill="#FA961C"></path><path class="st4" d="M262.59 225.86l-0.37 0.01H132.31c-8.54 0-15.89-7.07-16.23-15.61l-3.5-86.98c-0.03-0.79 0.02-1.64 0.14-2.52
	l128.13 17.51c8.41 1.15 18.68 6.08 19.08 15.8l2.78 69.13C262.75 224.1 262.71 224.99 262.59 225.86L262.59 225.86z" fill-rule="evenodd" clip-rule="evenodd" fill="#850578"></path></svg></g><path text="Умные панели" fill="#0580d9" space="preserve" text-anchor="middle" offset="0.5" font-scale="contain" font-size="48" font-family="Exo 2" transform="matrix(1.156056523323059, 0, 0, 1.156056523323059, 255.8057861328125, 345.1889953613281)" data-fl-textpath="" font-style="normal" font-weight="700" letter-spacing="-1" d="M-142.87-33.12L-135.33-33.12L-143.4-8.59Q-144.26-5.9 -145.29-3.94Q-146.32-1.97 -147.84-0.84Q-149.35 0.29 -151.7 0.53L-151.7 0.53Q-152.8 0.62 -154.32 0.53Q-155.83 0.43 -157.29 0.24Q-158.76 0.05 -159.81-0.14L-159.81-0.14L-159-5.28Q-156.84-5.18 -155.47-5.16Q-154.1-5.14 -153.24-5.42Q-152.37-5.71 -151.82-6.38Q-151.27-7.06 -150.79-8.3L-150.79-8.3L-149.73-11.86L-148.63-14.5L-142.87-33.12ZM-163.36-33.12L-155.83-33.12L-150.64-15.5Q-150.45-14.88 -149.68-14.88L-149.68-14.88L-147.67-14.88L-145.89-9.41L-152.32-9.41Q-154.15-9.41 -155.11-10.32Q-156.07-11.23 -156.55-12.82L-156.55-12.82L-163.36-33.12ZM-112.522-23.71L-106.142-23.71Q-103.742-23.71 -103.692-21.22L-103.692-21.22L-102.922 0L-109.402 0L-110.072-18.48L-110.752-18.48L-114.732-5.23Q-114.922-4.18 -115.592-3.6Q-116.272-3.02 -117.422-3.02L-117.422-3.02L-120.972-3.02Q-122.122-3.02 -122.792-3.6Q-123.472-4.18 -123.712-5.23L-123.712-5.23L-127.692-18.48L-128.362-18.48L-128.942 0L-135.422 0L-134.702-21.22Q-134.652-23.71 -132.152-23.71L-132.152-23.71L-125.912-23.71Q-124.812-23.71 -124.142-23.14Q-123.472-22.56 -123.272-21.46L-123.272-21.46L-120.152-10.99Q-119.872-10.13 -119.722-9.26Q-119.582-8.4 -119.482-7.49L-119.482-7.49L-118.952-7.49Q-118.762-8.45 -118.642-9.29Q-118.522-10.13 -118.282-10.99L-118.282-10.99L-115.212-21.46Q-114.782-23.71 -112.522-23.71L-112.522-23.71ZM-98.352-23.71L-91.352-23.71L-91.352 0L-98.352 0L-98.352-23.71ZM-91.632-14.93L-81.842-14.93L-81.842-10.08L-91.632-10.08L-91.632-14.93ZM-82.272-23.71L-75.272-23.71L-75.272 0L-82.272 0L-82.272-23.71ZM-69.592-15.41L-59.852-15.41Q-55.722-15.41 -53.392-14.71Q-51.072-14.02 -50.062-12.31Q-49.052-10.61 -49.052-7.58L-49.052-7.58Q-49.052-4.51 -50.062-2.81Q-51.072-1.1 -53.182-0.41Q-55.292 0.29 -58.652 0.29L-58.652 0.29Q-61.242 0.29 -63.192 0.26Q-65.132 0.24 -66.742 0.17Q-68.352 0.1 -70.072 0L-70.072 0L-69.552-4.7Q-68.592-4.66 -65.972-4.61Q-63.352-4.56 -59.852-4.56L-59.852-4.56Q-58.412-4.56 -57.642-4.8Q-56.872-5.04 -56.542-5.76Q-56.202-6.48 -56.202-7.82L-56.202-7.82Q-56.202-9.74 -56.922-10.42Q-57.642-11.09 -59.852-11.09L-59.852-11.09L-69.592-11.09L-69.592-15.41ZM-70.312-23.71L-63.452-23.71L-63.452 0L-70.312 0L-70.312-23.71ZM-45.882-23.71L-38.782-23.71L-38.782 0L-45.882 0L-45.882-23.71ZM-22.646-24.34L-22.646-24.34Q-16.596-24.34 -14.006-22.3Q-11.416-20.26 -11.366-16.22L-11.366-16.22Q-11.316-12.96 -12.996-11.35Q-14.676-9.74 -18.806-9.74L-18.806-9.74L-32.096-9.74L-32.096-13.73L-20.776-13.73Q-19.186-13.73 -18.706-14.42Q-18.226-15.12 -18.276-16.37L-18.276-16.37Q-18.276-18.05 -19.216-18.7Q-20.146-19.34 -22.406-19.34L-22.406-19.34Q-24.376-19.34 -25.456-18.82Q-26.536-18.29 -26.966-16.8Q-27.396-15.31 -27.396-12.48L-27.396-12.48Q-27.396-9.5 -26.866-7.9Q-26.336-6.29 -25.066-5.66Q-23.796-5.04 -21.586-5.04L-21.586-5.04Q-19.906-5.04 -17.486-5.16Q-15.056-5.28 -12.616-5.57L-12.616-5.57L-11.986-1.2Q-13.336-0.53 -15.106-0.14Q-16.886 0.24 -18.756 0.41Q-20.626 0.58 -22.406 0.58L-22.406 0.58Q-26.866 0.58 -29.626-0.74Q-32.386-2.06 -33.616-4.8Q-34.836-7.54 -34.836-11.81L-34.836-11.81Q-34.836-16.46 -33.586-19.2Q-32.336-21.94 -29.656-23.14Q-26.966-24.34 -22.646-24.34ZM 17.502-23.71L 24.462-23.71L 24.462 0L 17.502 0L 17.502-23.71ZM 1.712-23.71L 8.622-23.71L 8.622 0L 1.712 0L 1.712-23.71ZM 8.332-23.71L 17.982-23.71L 17.932-18.77L 8.332-18.77L 8.332-23.71ZM 41.896-24.34L 41.896-24.34Q 44.916-24.34  46.956-23.54Q 48.996-22.75  50.076-20.86Q 51.156-18.96  51.156-15.65L 51.156-15.65L 51.156 0L 45.496 0L 44.486-5.14L 44.056-5.86L 44.056-15.7Q 44.006-17.38  43.216-18.14Q 42.416-18.91  40.256-18.91L 40.256-18.91Q 38.386-18.91  35.656-18.79Q 32.916-18.67  30.036-18.48L 30.036-18.48L 29.366-23.18Q 31.096-23.52  33.346-23.76Q 35.606-24  37.856-24.17Q 40.116-24.34  41.896-24.34ZM 35.416-14.59L 48.226-14.59L 48.176-10.61L 37.666-10.56Q 36.376-10.56  35.796-9.94Q 35.216-9.31  35.216-8.26L 35.216-8.26L 35.216-7.1Q 35.216-5.9  35.916-5.26Q 36.616-4.61  38.056-4.61L 38.056-4.61Q 39.296-4.61  40.766-5.14Q 42.226-5.66  43.666-6.62Q 45.106-7.58  46.216-8.88L 46.216-8.88L 46.216-5.81Q 45.826-5.09  44.986-4.01Q 44.146-2.93  42.856-1.9Q 41.556-0.86  39.806-0.14Q 38.056 0.58  35.846 0.58L 35.846 0.58Q 33.686 0.58  31.956-0.19Q 30.226-0.96  29.216-2.45Q 28.216-3.94  28.216-6.14L 28.216-6.14L 28.216-8.59Q 28.216-11.42  30.136-13.01Q 32.056-14.59  35.416-14.59L 35.416-14.59ZM 55.92-23.71L 62.92-23.71L 62.92 0L 55.92 0L 55.92-23.71ZM 62.64-14.93L 72.43-14.93L 72.43-10.08L 62.64-10.08L 62.64-14.93ZM 72-23.71L 79-23.71L 79 0L 72 0L 72-23.71ZM 95.09-24.34L 95.09-24.34Q 101.14-24.34  103.73-22.3Q 106.32-20.26  106.37-16.22L 106.37-16.22Q 106.42-12.96  104.74-11.35Q 103.06-9.74  98.93-9.74L 98.93-9.74L 85.64-9.74L 85.64-13.73L 96.96-13.73Q 98.55-13.73  99.03-14.42Q 99.51-15.12  99.46-16.37L 99.46-16.37Q 99.46-18.05  98.52-18.7Q 97.59-19.34  95.33-19.34L 95.33-19.34Q 93.36-19.34  92.28-18.82Q 91.2-18.29  90.77-16.8Q 90.34-15.31  90.34-12.48L 90.34-12.48Q 90.34-9.5  90.87-7.9Q 91.4-6.29  92.67-5.66Q 93.94-5.04  96.15-5.04L 96.15-5.04Q 97.83-5.04  100.25-5.16Q 102.68-5.28  105.12-5.57L 105.12-5.57L 105.75-1.2Q 104.4-0.53  102.63-0.14Q 100.85 0.24  98.98 0.41Q 97.11 0.58  95.33 0.58L 95.33 0.58Q 90.87 0.58  88.11-0.74Q 85.35-2.06  84.12-4.8Q 82.9-7.54  82.9-11.81L 82.9-11.81Q 82.9-16.46  84.15-19.2Q 85.4-21.94  88.08-23.14Q 90.77-24.34  95.09-24.34ZM 119.484-23.71L 131.774-23.71L 131.774-18.82L 122.174-18.82Q 120.974-18.82  120.394-18.26Q 119.824-17.71  119.674-16.51L 119.674-16.51Q 119.434-14.54  119.174-12.55Q 118.904-10.56  118.624-8.76Q 118.334-6.96  117.944-5.66L 117.944-5.66Q 117.424-3.12  116.004-1.75Q 114.584-0.38  112.594 0.07Q 110.604 0.53  108.254 0.24L 108.254 0.24L 107.534-4.99Q 108.634-5.23  109.454-5.47Q 110.264-5.71  110.774-6.19Q 111.274-6.67  111.564-7.58L 111.564-7.58Q 111.854-8.4  112.094-9.53Q 112.334-10.66  112.524-12Q 112.714-13.34  112.864-14.83Q 113.004-16.32  113.144-17.81L 113.144-17.81Q 113.434-20.74  114.944-22.22Q 116.464-23.71  119.484-23.71L 119.484-23.71ZM 125.344-23.71L 132.394-23.71L 132.394 0L 125.344 0L 125.344-23.71ZM 154.53-23.71L 160.68-23.71L 160.68 0L 154.29 0.05L 154.29-12.38Q 154.29-13.34  154.36-14.26Q 154.44-15.17  154.58-16.22L 154.58-16.22L 154.39-16.22Q 154.1-15.36  153.57-14.38Q 153.04-13.39  152.56-12.67L 152.56-12.67L 143.59 0L 137.4 0L 137.4-23.71L 143.73-23.71L 143.73-10.94Q 143.73-10.08  143.68-9.24Q 143.64-8.4  143.49-7.44L 143.49-7.44L 143.64-7.44Q 144.02-8.35  144.48-9.14Q 144.93-9.94  145.41-10.66L 145.41-10.66L 154.53-23.71Z"></path></svg></svg>